<?xml version="1.0" encoding="UTF-8" standalone="no"?>
<svg
   xmlns:dc="http://purl.org/dc/elements/1.1/"
   xmlns:cc="http://creativecommons.org/ns#"
   xmlns:rdf="http://www.w3.org/1999/02/22-rdf-syntax-ns#"
   xmlns:svg="http://www.w3.org/2000/svg"
   xmlns="http://www.w3.org/2000/svg"
   xmlns:sodipodi="http://sodipodi.sourceforge.net/DTD/sodipodi-0.dtd"
   xmlns:inkscape="http://www.inkscape.org/namespaces/inkscape"
   inkscape:export-ydpi="96"
   inkscape:export-xdpi="96"
   inkscape:export-filename="C:\bootcamp\rehomeutah\client\public\assets\images\ctre-logo-slim.png"
   sodipodi:docname="ctre-logo-slim.svg"
   viewBox="0 0 512 512"
   height="512"
   width="512"
   id="svg10"
   version="1.1"
   inkscape:version="1.0 (4035a4fb49, 2020-05-01)">
  <metadata
     id="metadata16">
    <rdf:RDF>
      <cc:Work
         rdf:about="">
        <dc:format>image/svg+xml</dc:format>
        <dc:type
           rdf:resource="http://purl.org/dc/dcmitype/StillImage" />
        <dc:title />
      </cc:Work>
    </rdf:RDF>
  </metadata>
  <defs
     id="defs14" />
  <sodipodi:namedview
     pagecolor="#ffffff"
     bordercolor="#666666"
     borderopacity="1"
     objecttolerance="10"
     gridtolerance="10"
     guidetolerance="10"
     inkscape:pageopacity="0"
     inkscape:pageshadow="2"
     inkscape:window-width="1920"
     inkscape:window-height="1017"
     id="namedview12"
     showgrid="true"
     inkscape:snap-page="true"
     inkscape:object-paths="true"
     inkscape:snap-smooth-nodes="true"
     inkscape:zoom="1"
     inkscape:cx="118.95642"
     inkscape:cy="191.52515"
     inkscape:window-x="-8"
     inkscape:window-y="-8"
     inkscape:window-maximized="1"
     inkscape:current-layer="g18"
     inkscape:document-rotation="0"
     inkscape:object-nodes="true"
     inkscape:snap-bbox="true"
     inkscape:snap-bbox-edge-midpoints="true"
     inkscape:bbox-nodes="false"
     inkscape:bbox-paths="false"
     inkscape:snap-grids="false"
     inkscape:snap-intersection-paths="true"
     inkscape:snap-nodes="false"
     inkscape:snap-others="false">
    <inkscape:grid
       type="xygrid"
       id="grid24" />
  </sodipodi:namedview>
  <g
     inkscape:groupmode="layer"
     inkscape:label="Image"
     id="g18">
    <circle
       r="256"
       cy="256"
       cx="256"
       id="path2124"
       style="fill:#ffffff;stroke:none;stroke-width:5.52738;stroke-linejoin:round;paint-order:stroke markers fill" />
    <path
       id="path867"
       style="fill:#000000;stroke:none;stroke-width:39.2602;stroke-linejoin:round;stroke-miterlimit:4;stroke-dasharray:none"
       inkscape:transform-center-y="-13.637036"
       d="m 193.41312,178.6382 c -0.28071,-0.21202 -0.5629,-0.38477 -0.84347,-0.59834 -1.65325,-1.29558 -3.30838,-2.63239 -4.96123,-3.84946 -1.65326,-1.21707 -3.30796,-2.31085 -4.96121,-3.17457 -1.65286,-0.86374 -3.30068,-1.49544 -4.95354,-1.80951 -1.65325,-0.27483 -3.30795,-0.27483 -4.96121,0.0747 -1.65285,0.31408 -3.30834,0.98425 -4.96119,1.84798 -1.65325,0.90299 -3.30795,2.00265 -4.96121,3.25898 -1.65285,1.21708 -3.30029,2.55468 -4.95355,3.811 -1.65285,1.29559 -3.30832,2.50676 -4.96119,3.52754 -1.65325,1.02076 -3.30795,1.81186 -4.96119,2.36149 -1.65287,0.51039 -3.30839,0.7008 -4.96125,0.58301 -1.65324,-0.11775 -3.30025,-0.54334 -4.95351,-1.25003 -1.65285,-0.70472 -3.30837,-1.68897 -4.96124,-2.82753 -1.5147,-1.04314 -3.03245,-2.22605 -4.54711,-3.41211 l -35.970685,62.3025 H 228.54033 Z" />
    <path
       id="path869"
       style="fill:#000000;stroke:none;stroke-width:39.2602;stroke-linejoin:round;stroke-miterlimit:4;stroke-dasharray:none"
       inkscape:transform-center-y="-13.637041"
       d="m 383.41982,177.05835 c -1.65287,1.2956 -3.30836,2.58922 -4.96121,3.68851 -1.65286,1.13853 -3.30069,2.08432 -4.95355,2.79101 -1.65325,0.66742 -3.30794,1.10242 -4.9612,1.18095 -1.65285,0.0786 -3.30835,-0.20416 -4.96119,-0.71337 -1.65326,-0.54964 -3.30797,-1.40983 -4.96121,-2.4306 -1.65286,-1.02076 -3.3007,-2.27866 -4.95355,-3.535 -1.65325,-1.29557 -3.30836,-2.63239 -4.9612,-3.84946 -1.65325,-1.21707 -3.30796,-2.31085 -4.96121,-3.17457 -1.65285,-0.86374 -3.30838,-1.49544 -4.96123,-1.80951 -1.65325,-0.27483 -3.30027,-0.27483 -4.95351,0.0747 -1.65286,0.31407 -3.30839,0.98425 -4.96124,1.84797 -1.65326,0.90299 -3.30797,2.00266 -4.9612,3.25898 -1.65286,1.21708 -3.30796,2.55468 -4.96122,3.811 -0.0613,0.0471 -0.12279,0.0825 -0.18412,0.12956 l -35.30346,61.15532 h 136 z"
       inkscape:transform-center-x="-1.2101304e-06" />
    <g
       transform="matrix(0.93754962,0,0,0.93754962,15.98727,15.987299)"
       id="g1455"
       style="opacity:1" />
    <path
       style="opacity:0.0967742;fill:#000000;stroke-width:2.72741"
       d="m 192.92357,446.74053 c -0.8776,-0.23456 -1.64782,-0.68895 -2.35453,-1.38472 -0.70991,-0.69931 -1.1274,-1.36697 -1.48183,-2.37012 l -0.24629,-0.69713 -0.0292,-34.15816 -0.0292,-34.15791 h -6.27268 c -4.80513,0 -6.47308,-0.0409 -7.12939,-0.15546 -2.08252,-0.37147 -3.61909,-1.77937 -4.29011,-3.93184 -0.24438,-0.78332 -0.28341,-1.07652 -0.23265,-1.74282 0.0704,-0.92105 0.46974,-2.0712 0.98582,-2.83761 0.19584,-0.29074 9.16944,-9.32668 19.94165,-20.07952 10.77218,-10.75338 28.92136,-28.88034 40.33151,-40.28286 19.73672,-19.72276 20.78446,-20.75046 21.5424,-21.12711 1.75182,-0.87005 4.11166,-0.67231 5.55859,0.46557 0.60409,0.4754 80.38936,80.17296 80.82078,80.73209 0.25038,0.32456 0.59966,0.95595 0.77612,1.40326 0.44443,1.12669 0.46303,2.60658 0.048,3.79929 -0.50035,1.43707 -1.44108,2.52995 -2.71454,3.15371 -1.13684,0.5564 -1.75976,0.60057 -8.57498,0.60467 h -6.27229 l -0.0294,34.1579 c -0.0284,32.83728 -0.0376,34.18135 -0.23483,34.76311 -0.66402,1.95719 -2.11928,3.37899 -3.93757,3.84702 -0.61154,0.15819 -2.6778,0.17728 -19.19182,0.17728 -20.40158,0 -18.9531,0.0464 -20.3485,-0.68976 -1.068,-0.56512 -2.27151,-2.0022 -2.68637,-3.20772 -0.10501,-0.30575 -0.15192,-5.64084 -0.2032,-23.20596 -0.0734,-25.14787 -0.0163,-23.29813 -0.77314,-25.5578 -1.40838,-4.21032 -5.22251,-7.41694 -9.81635,-8.25289 -0.66274,-0.12001 -2.74803,-0.15001 -10.03826,-0.15001 -8.48101,0 -9.2847,0.0273 -10.2613,0.20729 -2.65122,0.51384 -4.87311,1.68008 -6.70141,3.51727 -1.8454,1.8541 -2.90611,3.8192 -3.44764,6.38816 -0.21438,1.01706 -0.21983,1.59009 -0.2242,23.34996 -0.006,18.92773 -0.0286,22.42182 -0.16446,23.06386 -0.44124,2.08947 -1.91778,3.73111 -3.89784,4.33331 -0.64773,0.19911 -1.49606,0.20729 -19.24836,0.19911 -15.86257,0 -18.6585,-0.03 -19.17254,-0.1691 z"
       id="path22"
       sodipodi:nodetypes="ssscccsssssssssssssscssssssssssssssssss" />
    <g
       inkscape:transform-center-x="-3.7947542e-06"
       id="g1409"
       inkscape:transform-center-y="-18.182264"
       style="opacity:1;stroke:none"
       transform="matrix(2.7274171,0,0,2.7274171,10.532378,-10667.305)">
      <path
         style="color:#000000;font-style:normal;font-variant:normal;font-weight:normal;font-stretch:normal;font-size:medium;line-height:normal;font-family:sans-serif;font-variant-ligatures:normal;font-variant-position:normal;font-variant-caps:normal;font-variant-numeric:normal;font-variant-alternates:normal;font-variant-east-asian:normal;font-feature-settings:normal;font-variation-settings:normal;text-indent:0;text-align:start;text-decoration:none;text-decoration-line:none;text-decoration-style:solid;text-decoration-color:#000000;letter-spacing:normal;word-spacing:normal;text-transform:none;writing-mode:lr-tb;direction:ltr;text-orientation:mixed;dominant-baseline:auto;baseline-shift:baseline;text-anchor:start;white-space:normal;shape-padding:0;shape-margin:0;inline-size:0;clip-rule:nonzero;display:inline;overflow:visible;visibility:visible;isolation:auto;mix-blend-mode:normal;color-interpolation:sRGB;color-interpolation-filters:linearRGB;solid-color:#000000;solid-opacity:1;vector-effect:none;fill:#ffffff;fill-opacity:1;fill-rule:nonzero;stroke:none;stroke-width:18.8;stroke-linecap:butt;stroke-linejoin:miter;stroke-miterlimit:4;stroke-dasharray:none;stroke-dashoffset:0;stroke-opacity:1;paint-order:stroke markers fill;color-rendering:auto;image-rendering:auto;shape-rendering:auto;text-rendering:auto;enable-background:accumulate;stop-color:#000000;stop-opacity:1"
         d="m 89.999996,3941.5357 -4.772727,8.2667 L 55,4002.1582 h 69.99999 z m 0,22.0446 15.909084,27.5556 H 74.090906 Z"
         id="path1411" />
      <path
         id="path1413"
         style="color:#000000;font-style:normal;font-variant:normal;font-weight:normal;font-stretch:normal;font-size:medium;line-height:normal;font-family:sans-serif;font-variant-ligatures:normal;font-variant-position:normal;font-variant-caps:normal;font-variant-numeric:normal;font-variant-alternates:normal;font-variant-east-asian:normal;font-feature-settings:normal;font-variation-settings:normal;text-indent:0;text-align:start;text-decoration:none;text-decoration-line:none;text-decoration-style:solid;text-decoration-color:#000000;letter-spacing:normal;word-spacing:normal;text-transform:none;writing-mode:lr-tb;direction:ltr;text-orientation:mixed;dominant-baseline:auto;baseline-shift:baseline;text-anchor:start;white-space:normal;shape-padding:0;shape-margin:0;inline-size:0;clip-rule:nonzero;display:inline;overflow:visible;visibility:visible;isolation:auto;mix-blend-mode:normal;color-interpolation:sRGB;color-interpolation-filters:linearRGB;solid-color:#000000;solid-opacity:1;vector-effect:none;fill:#000000;fill-opacity:1;fill-rule:nonzero;stroke:none;stroke-width:12.5926;stroke-linecap:butt;stroke-linejoin:miter;stroke-miterlimit:4;stroke-dasharray:none;stroke-dashoffset:0;stroke-opacity:1;paint-order:stroke markers fill;color-rendering:auto;image-rendering:auto;shape-rendering:auto;text-rendering:auto;enable-background:accumulate;stop-color:#000000;stop-opacity:1"
         d="m 104.73732,3974.1751 c -0.4056,0.3152 -0.81185,0.6353 -1.21744,0.905 -0.53015,0.3652 -1.05869,0.6662 -1.58884,0.8929 -0.53028,0.214 -1.06102,0.3536 -1.5913,0.3787 -0.53015,0.025 -1.061146,-0.063 -1.591297,-0.2262 -0.530276,-0.1763 -1.06102,-0.4548 -1.591297,-0.7822 -0.53015,-0.3274 -1.058687,-0.7283 -1.588837,-1.1313 -0.530276,-0.4156 -1.061147,-0.8443 -1.591297,-1.2347 -0.530276,-0.3904 -1.061021,-0.7436 -1.591297,-1.0206 -0.53015,-0.2771 -1.061147,-0.4773 -1.591297,-0.578 -0.530276,-0.088 -1.05856,-0.088 -1.588836,0.024 -0.53015,0.1007 -1.061147,0.3133 -1.591297,0.5903 -0.530276,0.2897 -1.061021,0.6423 -1.591297,1.0452 -0.53015,0.3904 -1.061021,0.8194 -1.591297,1.2224 -0.53015,0.4155 -1.058687,0.8064 -1.588837,1.1338 -0.530277,0.3274 -1.061021,0.5788 -1.591297,0.7551 -0.530151,0.1637 -1.061147,0.2272 -1.591297,0.1894 -0.530275,-0.038 -1.06102,-0.1767 -1.591296,-0.4034 -0.53015,-0.2266 -1.058687,-0.5423 -1.588838,-0.9075 -0.397379,-0.2737 -0.795513,-0.5862 -1.192858,-0.8952 l -14.368401,24.8857 h 58.162263 z" />
    </g>
    <circle
       style="fill:none;fill-rule:evenodd;stroke:#000000;stroke-width:12;stroke-miterlimit:4;stroke-dasharray:none"
       id="path26"
       cx="255.99997"
       cy="256"
       r="231.83044" />
    <path
       id="path855"
       style="fill:none;stroke:#000000;stroke-width:12;stroke-linejoin:round;stroke-miterlimit:4;stroke-dasharray:none"
       inkscape:transform-center-x="1.9575919e-05"
       inkscape:transform-center-y="-31.493926"
       d="M 255.99992,65.080773 200.39683,161.38724 160.54032,92.354944 67.190213,254.0395 h 186.700237 4.21897 106.98719 79.71301 L 351.45952,92.354944 311.60301,161.38724 Z" />
    <path
       style="fill:none;stroke:#000000;stroke-width:12;stroke-linecap:butt;stroke-linejoin:miter;stroke-miterlimit:4;stroke-dasharray:none;stroke-opacity:1"
       d="M 24.169463,255.99998 H 487.83037"
       id="path851" />
    <g
       inkscape:transform-center-x="-3.7947544e-06"
       id="g1491"
       inkscape:transform-center-y="-11.363718"
       style="opacity:1;fill:#000000"
       transform="matrix(2.7274171,0,0,2.7274171,10.532378,-10667.305)">
      <path
         id="path1493"
         style="color:#000000;font-style:normal;font-variant:normal;font-weight:normal;font-stretch:normal;font-size:medium;line-height:normal;font-family:sans-serif;font-variant-ligatures:normal;font-variant-position:normal;font-variant-caps:normal;font-variant-numeric:normal;font-variant-alternates:normal;font-variant-east-asian:normal;font-feature-settings:normal;font-variation-settings:normal;text-indent:0;text-align:start;text-decoration:none;text-decoration-line:none;text-decoration-style:solid;text-decoration-color:#000000;letter-spacing:normal;word-spacing:normal;text-transform:none;writing-mode:lr-tb;direction:ltr;text-orientation:mixed;dominant-baseline:auto;baseline-shift:baseline;text-anchor:start;white-space:normal;shape-padding:0;shape-margin:0;inline-size:0;clip-rule:nonzero;display:inline;overflow:visible;visibility:visible;isolation:auto;mix-blend-mode:normal;color-interpolation:sRGB;color-interpolation-filters:linearRGB;solid-color:#000000;solid-opacity:1;vector-effect:none;fill:#000000;fill-opacity:1;fill-rule:nonzero;stroke:none;stroke-width:10;stroke-linecap:butt;stroke-linejoin:round;stroke-miterlimit:4;stroke-dasharray:none;stroke-dashoffset:0;stroke-opacity:1;paint-order:stroke markers fill;color-rendering:auto;image-rendering:auto;shape-rendering:auto;text-rendering:auto;enable-background:accumulate;stop-color:#000000;stop-opacity:1"
         d="m 90.044922,4017 c -0.716992,-0.01 -1.414028,0.2362 -1.964844,0.6953 l -30,25 C 55.925615,4044.4916 57.194917,4047.9987 60,4048 h 5 v 12 10 2 c 1.66e-4,1.6568 1.343214,2.9998 3,3 h 11.4375 c 1.656786,-2e-4 2.999834,-1.3432 3,-3 v -1.4473 c 0.0087,-0.077 0.03192,-0.1486 0.03711,-0.2265 V 4057 c 2.76e-4,-2.7613 2.238691,-5 5,-5 h 5.050782 c 2.761309,0 4.999724,2.2387 5,5 v 13.3379 c 0.0052,0.077 0.02853,0.1471 0.03711,0.2226 V 4072 c 1.66e-4,1.6568 1.343214,2.9998 2.999998,3 h 1.95117 7.48633 2 c 1.65679,-2e-4 2.99983,-1.3432 3,-3 v -1.9941 -10.627 V 4048 h 5 c 2.80508,0 4.07438,-3.5084 1.91992,-5.3047 l -29.999996,-25 c -0.527099,-0.4394 -1.188878,-0.6848 -1.875,-0.6953 z" />
      <g
         id="g1496"
         style="opacity:1" />
    </g>
    <g
       transform="matrix(0.93754962,0,0,0.93754962,15.98727,15.987299)"
       id="g1462"
       style="opacity:1;fill:#00ff00" />
    <g
       transform="matrix(0.93754962,0,0,0.93754962,15.98727,15.987299)"
       id="g1470"
       style="opacity:1" />
    <g
       transform="matrix(0.93754962,0,0,0.93754962,15.98727,15.987299)"
       id="g1477"
       style="opacity:1" />
    <text
       id="text857"
       y="321.34348"
       x="75.726997"
       style="font-style:normal;font-variant:normal;font-weight:bold;font-stretch:normal;font-size:109.097px;line-height:1.25;font-family:'Montserrat Alternates';-inkscape-font-specification:'Montserrat Alternates Bold';stroke-width:2.72742"
       xml:space="preserve"><tspan
         style="font-style:normal;font-variant:normal;font-weight:bold;font-stretch:normal;font-size:60.0032px;font-family:'Montserrat Alternates';-inkscape-font-specification:'Montserrat Alternates Bold';stroke-width:2.72742"
         y="321.34348"
         x="75.726997"
         id="tspan855"
         sodipodi:role="line">CT</tspan></text>
    <text
       xml:space="preserve"
       style="font-style:normal;font-variant:normal;font-weight:bold;font-stretch:normal;font-size:109.097px;line-height:1.25;font-family:'Montserrat Alternates';-inkscape-font-specification:'Montserrat Alternates Bold';stroke-width:2.72742"
       x="347.61636"
       y="321.34348"
       id="text2122"><tspan
         sodipodi:role="line"
         id="tspan2120"
         x="347.61636"
         y="321.34348"
         style="font-style:normal;font-variant:normal;font-weight:bold;font-stretch:normal;font-size:60.0032px;font-family:'Montserrat Alternates';-inkscape-font-specification:'Montserrat Alternates Bold';stroke-width:2.72742">RE</tspan></text>
  </g>
</svg>
